<svg xmlns="http://www.w3.org/2000/svg" viewBox="0 0 512 512" width="512" height="512" role="img" aria-label="Stride app icon">
  <defs><linearGradient id="g" x1="30" y1="210" x2="200" y2="30" gradientUnits="userSpaceOnUse"><stop offset="0" stop-color="#ff7a45"/><stop offset="1" stop-color="#ff4d6b"/></linearGradient></defs>
  <rect width="512" height="512" rx="112" fill="#0a0912"/>
  <rect x="40" y="40" width="432" height="432" rx="92" fill="url(#g)"/>
  <g transform="translate(103.70,95.30) scale(1.5316)">
    <path d="M18 92 H66" stroke="#1a0704" stroke-width="13" stroke-linecap="round" fill="none" opacity="0.5"/>
    <path d="M8 122 H54" stroke="#1a0704" stroke-width="13" stroke-linecap="round" fill="none" opacity="0.32"/>
    <path d="M22 152 H60" stroke="#1a0704" stroke-width="13" stroke-linecap="round" fill="none" opacity="0.2"/>
    <g fill="#1a0704">
      <circle cx="148.8" cy="46.6" r="19"/>
      <rect x="108.0" y="107.0" width="62.0" height="26.0" rx="13.0" transform="rotate(-62 108.0 120.0)"/>
      <rect x="108.0" y="108.0" width="52.0" height="24.0" rx="12.0" transform="rotate(-8 108.0 120.0)"/>
      <rect x="159.5" y="103.8" width="50.0" height="18.0" rx="9.0" transform="rotate(52 159.5 112.8)"/>
      <rect x="108.0" y="108.0" width="50.0" height="24.0" rx="12.0" transform="rotate(158 108.0 120.0)"/>
      <rect x="61.6" y="130.2" width="46.0" height="17.0" rx="8.5" transform="rotate(122 61.6 138.7)"/>
      <rect x="129.6" y="71.4" width="34.0" height="16.0" rx="8.0" transform="rotate(-18 129.6 79.4)"/>
      <rect x="161.9" y="62.4" width="30.0" height="13.0" rx="6.5" transform="rotate(42 161.9 68.9)"/>
      <rect x="129.6" y="71.4" width="32.0" height="16.0" rx="8.0" transform="rotate(168 129.6 79.4)"/>
      <rect x="98.3" y="80.0" width="28.0" height="12.0" rx="6.0" transform="rotate(128 98.3 86.0)"/>
    </g>
  </g>
</svg>
